<?xml version="1.0" encoding="iso-8859-1"?>
<!-- Generator: Adobe Illustrator 19.0.0, SVG Export Plug-In . SVG Version: 6.00 Build 0)  -->
<svg version="1.1" id="Layer_1" xmlns="http://www.w3.org/2000/svg" xmlns:xlink="http://www.w3.org/1999/xlink" x="0px" y="0px"
	 viewBox="0 0 452 452" style="enable-background:new 0 0 452 452;" xml:space="preserve">
<g>
	<polygon style="fill:#DDB74B;" points="273.55,340.08 273.55,365.84 178.44,365.84 178.44,340.08 260.01,340.08 	"/>
	<polygon style="fill:#DDB74B;" points="329.87,150 334.73,176.3 301.43,176.3 306.29,150 	"/>
	<rect x="282.01" y="198.3" style="fill:#76CDCE;" width="72.14" height="116.94"/>
	<path style="fill:#DDB74B;" d="M148.7,10l-2.56,25h-9.25c-6.904,0-12.5-5.596-12.5-12.5l0,0c0-6.904,5.596-12.5,12.5-12.5H148.7z"
		/>
	<path style="fill:#DDB74B;" d="M232.39,22.5L232.39,22.5c0,6.904-5.596,12.5-12.5,12.5h-9.26h-0.01l-2.56-25h0.01h11.82
		C226.794,10,232.39,15.596,232.39,22.5z"/>
	<path style="fill:#F7CF52;" d="M146.14,35l2.56-25l0,0c0.579-5.68,5.363-10,11.072-10h37.216c5.709,0,10.493,4.32,11.072,10l0,0
		l2.56,25l7.26,71h-18h-43h-18L146.14,35z"/>
	<polygon style="fill:#DDB74B;" points="156.88,106 199.88,106 199.88,130 199.88,139.92 156.88,139.92 	"/>
	<path style="fill:#F7CF52;" d="M221.39,144v18.07h-86V144c0-7.73,6.26-14,13.99-14h7.5h43h0.01h7.5
		C215.12,130,221.39,136.27,221.39,144z"/>
	<path style="fill:#F7CF52;" d="M237.33,171.636V199H119.44v-27.364c0-6.94,5.626-12.566,12.566-12.566h3.384h86h3.374
		C231.704,159.07,237.33,164.696,237.33,171.636z"/>
	<polygon style="fill:#DDB74B;" points="237.33,269.71 237.33,293.29 214.23,293.29 214.23,269.71 189.93,269.71 189.93,293.29 
		166.83,293.29 166.83,269.71 142.54,269.71 142.54,293.29 119.44,293.29 119.44,269.71 119.44,256.11 119.44,237.97 119.44,199 
		237.33,199 237.33,237.97 237.33,256.11 	"/>
	<polygon style="fill:#F7CF52;" points="260.01,237.97 260.01,315.24 75.84,315.24 75.84,237.97 119.44,237.97 119.44,256.11 
		119.44,269.71 119.44,293.29 142.54,293.29 142.54,269.71 166.83,269.71 166.83,293.29 189.93,293.29 189.93,269.71 214.23,269.71 
		214.23,293.29 237.33,293.29 237.33,269.71 237.33,256.11 237.33,237.97 	"/>
	<path style="fill:#F7CF52;" d="M376.15,315.24v28.84h-102.6h-13.54v-28.84v-77.27v-47.661c0-7.737,6.272-14.009,14.009-14.009
		h27.411h33.3h27.411c7.737,0,14.009,6.272,14.009,14.009V315.24z M354.15,315.24V198.3h-72.14v116.94H354.15z"/>
	<polygon style="fill:#DDB74B;" points="260.01,315.24 260.01,344.08 178.44,344.08 75.84,344.08 75.84,315.24 	"/>
	<polygon style="fill:#F7CF52;" points="295.38,377.54 295.38,424.57 156.62,424.57 156.62,377.54 178.44,365.84 273.55,365.84 	"/>
	<path style="fill:#666666;" d="M386.07,373.39v70.16c0,4.667-3.783,8.45-8.45,8.45h-73.79c-4.667,0-8.45-3.783-8.45-8.45v-18.98
		v-47.03v-4.15c0-4.667,3.783-8.45,8.45-8.45h73.79C382.287,364.94,386.07,368.723,386.07,373.39z"/>
	<path style="fill:#666666;" d="M156.62,424.57v18.98c0,4.667-3.783,8.45-8.45,8.45H74.38c-4.667,0-8.45-3.783-8.45-8.45v-70.16
		c0-4.667,3.783-8.45,8.45-8.45h73.79c4.667,0,8.45,3.783,8.45,8.45v4.15V424.57z"/>
	<polygon style="fill:#96E0DE;" points="354.15,198.3 354.15,270.44 282.01,198.3 	"/>
</g>
<g>
</g>
<g>
</g>
<g>
</g>
<g>
</g>
<g>
</g>
<g>
</g>
<g>
</g>
<g>
</g>
<g>
</g>
<g>
</g>
<g>
</g>
<g>
</g>
<g>
</g>
<g>
</g>
<g>
</g>
</svg>
