<?xml version="1.0" encoding="iso-8859-1"?>
<!-- Generator: Adobe Illustrator 19.0.0, SVG Export Plug-In . SVG Version: 6.00 Build 0)  -->
<svg version="1.1" id="Layer_1" xmlns="http://www.w3.org/2000/svg" xmlns:xlink="http://www.w3.org/1999/xlink" x="0px" y="0px"
	 viewBox="0 0 603.183 603.183" style="enable-background:new 0 0 603.183 603.183;" xml:space="preserve">
<g>
	<rect x="120.408" y="420.379" style="fill:#D1B554;" width="95.273" height="90.588"/>
	<path style="fill:#979797;" d="M60.201,563.592c-26.631,0-48.298-21.667-48.298-48.298c0-26.631,21.667-48.298,48.298-48.298
		h299.05c26.631,0,48.298,21.667,48.298,48.298c0,26.631-21.667,48.298-48.298,48.298H60.201z"/>
	<path style="fill:#666666;" d="M359.252,478.906H60.201c-20.097,0-36.389,16.292-36.389,36.389l0,0
		c0,20.097,16.292,36.389,36.389,36.389h299.05c20.097,0,36.389-16.292,36.389-36.389l0,0
		C395.64,495.197,379.349,478.906,359.252,478.906z"/>
	<path style="fill:#93CBCC;" d="M310.404,428.515h-0.013l-77.594-18.486c-19.346-4.618-32.988-21.9-32.988-41.787v-66.651h93.579
		l14.489,108.068L310.404,428.515z"/>
	<polygon style="fill:#D1B554;" points="513.414,80.612 546.058,244.666 522.676,252.632 473.717,122.955 463.131,89.874 
		467.101,39.591 	"/>
	<polygon style="fill:#EBCD5C;" points="463.131,89.874 473.717,122.955 280.525,246.016 271.262,301.591 224.949,301.591 
		224.949,219.551 	"/>
	<path style="fill:#EBCD5C;" d="M310.404,428.516l3.202,23.924H0l9.752-72.778h151.682l10.758-78.071h27.616v66.651
		c0,19.888,13.643,37.17,32.988,41.788l77.594,18.486H310.404z"/>
	<path style="fill:#EBCD5C;" d="M596.023,252.526c-9.038-11.803-24.599-16.514-38.678-11.71l-11.287,3.85l-23.381,7.966
		l32.377,66.777l-7.581,10.997c-6.218,9.02-3.932,21.375,5.101,27.574l44.522-64.765c4.062-5.928,6.087-12.769,6.087-19.61
		C603.182,266.155,600.787,258.732,596.023,252.526z"/>
	<path style="fill:#979797;" d="M62.839,525.217c-0.634,0-1.296-0.067-1.932-0.198c-0.634-0.12-1.256-0.318-1.852-0.556
		c-0.609-0.251-1.179-0.556-1.72-0.913c-0.543-0.37-1.045-0.781-1.509-1.244c-0.45-0.45-0.874-0.966-1.23-1.509
		c-0.358-0.529-0.662-1.111-0.914-1.706c-0.251-0.596-0.437-1.231-0.569-1.853c-0.132-0.648-0.199-1.297-0.199-1.945
		c0-0.649,0.067-1.297,0.199-1.932s0.318-1.257,0.569-1.866c0.252-0.596,0.556-1.178,0.914-1.707
		c0.357-0.543,0.781-1.058,1.23-1.509c0.464-0.463,0.967-0.873,1.509-1.23c0.541-0.357,1.111-0.675,1.72-0.913
		c0.596-0.252,1.217-0.45,1.852-0.569c3.229-0.649,6.656,0.41,8.959,2.712c0.45,0.45,0.874,0.966,1.23,1.509
		c0.358,0.529,0.662,1.111,0.914,1.707c0.251,0.609,0.437,1.231,0.569,1.866c0.133,0.635,0.199,1.283,0.199,1.932
		c0,0.648-0.066,1.297-0.199,1.945c-0.132,0.622-0.318,1.257-0.569,1.853c-0.252,0.595-0.556,1.177-0.914,1.706
		c-0.357,0.543-0.781,1.059-1.23,1.509C68.013,524.158,65.46,525.217,62.839,525.217z"/>
	<path style="fill:#979797;" d="M356.611,525.217c-2.621,0-5.174-1.059-7.027-2.898c-0.45-0.463-0.874-0.966-1.23-1.522
		c-0.358-0.529-0.662-1.111-0.914-1.706c-0.251-0.596-0.437-1.231-0.569-1.853c-0.132-0.648-0.199-1.297-0.199-1.945
		c0-0.649,0.067-1.297,0.199-1.932s0.318-1.27,0.569-1.866c0.252-0.596,0.556-1.178,0.914-1.707c0.357-0.543,0.78-1.058,1.23-1.509
		c2.303-2.302,5.73-3.361,8.959-2.712c0.634,0.119,1.257,0.317,1.852,0.569c0.609,0.238,1.178,0.556,1.721,0.913
		c0.541,0.357,1.045,0.768,1.508,1.23c0.45,0.45,0.874,0.966,1.23,1.509c0.358,0.529,0.662,1.111,0.914,1.707
		c0.251,0.596,0.437,1.231,0.569,1.866c0.133,0.635,0.199,1.283,0.199,1.932c0,0.648-0.066,1.297-0.199,1.945
		c-0.132,0.622-0.318,1.257-0.569,1.853c-0.252,0.595-0.556,1.177-0.914,1.706c-0.357,0.543-0.78,1.059-1.23,1.522
		c-0.463,0.45-0.967,0.86-1.508,1.23c-0.543,0.357-1.113,0.662-1.721,0.913c-0.594,0.238-1.217,0.437-1.852,0.556
		C357.907,525.151,357.245,525.217,356.611,525.217z"/>
	<path style="fill:#979797;" d="M326.832,525.219H92.62c-5.482,0-9.924-4.443-9.924-9.924s4.443-9.924,9.924-9.924h234.212
		c5.482,0,9.924,4.443,9.924,9.924C336.756,520.775,332.313,525.219,326.832,525.219z"/>
	<rect x="36.516" y="406.789" style="fill:#D1B554;" width="39.697" height="19.848"/>
	<polygon style="fill:#ADDEDC;" points="307.876,409.659 199.808,301.591 293.387,301.591 	"/>
</g>
<g>
</g>
<g>
</g>
<g>
</g>
<g>
</g>
<g>
</g>
<g>
</g>
<g>
</g>
<g>
</g>
<g>
</g>
<g>
</g>
<g>
</g>
<g>
</g>
<g>
</g>
<g>
</g>
<g>
</g>
</svg>
