<svg xmlns="http://www.w3.org/2000/svg" version="1.1" xmlns:xlink="http://www.w3.org/1999/xlink" xmlns:svgjs="http://svgjs.com/svgjs" width="1440" height="560" preserveAspectRatio="none" viewBox="0 0 1440 560"><g mask="url(&quot;#SvgjsMask1018&quot;)" fill="none"><path d="M234.31 438.34 a0.41 0.41 0 1 0 0.82 0 a0.41 0.41 0 1 0 -0.82 0z" fill="rgba(253, 226, 72, 1)"></path><path d="M1072.25 135.13L1100.85 135.13L1100.85 175.6L1072.25 175.6z" stroke="rgba(253, 226, 72, 1)"></path><path d="M1241.51 528.88L1276.12 528.88L1276.12 545.55L1241.51 545.55z" stroke="rgba(253, 226, 72, 1)"></path><path d="M1010.89 272.64L1015.37 272.64L1015.37 277.12L1010.89 277.12z" stroke="rgba(253, 226, 72, 1)"></path><path d="M452.84 365.32a27.19 27.19 0 1 0-47.24 26.94z" fill="rgba(253, 226, 72, 1)"></path><path d="M102.76 243.7L153.7 243.7L153.7 294.64L102.76 294.64z" stroke="rgba(253, 226, 72, 1)"></path><path d="M1208.31 280.22L1246.37 280.22L1246.37 318.28L1208.31 318.28z" stroke="rgba(213, 53, 52, 1)"></path><path d="M673.05 469.37L691.8 469.37L691.8 488.12L673.05 488.12z" fill="rgba(253, 226, 72, 1)"></path><path d="M971.64 131.48a12.93 12.93 0 1 0-1.44-25.82z" fill="rgba(253, 226, 72, 1)"></path><path d="M455.54 469.11L475.86 469.11L475.86 489.43L455.54 489.43z" fill="rgba(253, 226, 72, 1)"></path><path d="M144.3 25.59L146.09 25.59L146.09 55.88L144.3 55.88z" stroke="rgba(253, 226, 72, 1)"></path><path d="M562.37 486.9L562.62 486.9L562.62 533.32L562.37 533.32z" stroke="rgba(253, 226, 72, 1)"></path><path d="M1337.01 213.28 a21.75 21.75 0 1 0 43.5 0 a21.75 21.75 0 1 0 -43.5 0z" stroke="rgba(253, 226, 72, 1)"></path><path d="M1152.26 279.4a5.13 5.13 0 1 0 8.48 5.78z" fill="rgba(213, 53, 52, 1)"></path><path d="M1394.39 539.57L1408.45 539.57L1408.45 561.28L1394.39 561.28z" fill="rgba(253, 226, 72, 1)"></path><path d="M524.62 277.23L528.75 277.23L528.75 281.36L524.62 281.36z" fill="rgba(253, 226, 72, 1)"></path><path d="M302.07 270.9L330.34 270.9L330.34 299.17L302.07 299.17z" fill="rgba(253, 226, 72, 1)"></path><path d="M796.92 519.5a47.5 47.5 0 1 0-65.02 69.26z" stroke="rgba(253, 226, 72, 1)"></path><path d="M1312.11 396.2L1355.97 396.2L1355.97 440.06L1312.11 440.06z" stroke="rgba(253, 226, 72, 1)"></path><path d="M577.05 30.41L586.26 30.41L586.26 39.62L577.05 39.62z" stroke="rgba(213, 53, 52, 1)"></path><path d="M1012.11 151.78a7.23 7.23 0 1 0-12.41-7.43z" fill="rgba(213, 53, 52, 1)"></path><path d="M365.08 195.19 a52.58 52.58 0 1 0 105.16 0 a52.58 52.58 0 1 0 -105.16 0z" stroke="rgba(213, 53, 52, 1)"></path><path d="M919.59 317.24 a17.89 17.89 0 1 0 35.78 0 a17.89 17.89 0 1 0 -35.78 0z" fill="rgba(253, 226, 72, 1)"></path><path d="M994.54 220.69a28.6 28.6 0 1 0 0.53 57.19z" fill="rgba(213, 53, 52, 1)"></path><path d="M101 491.89a55.84 55.84 0 1 0-7.27-111.45z" fill="rgba(213, 53, 52, 1)"></path><path d="M843.68 188L870.37 188L870.37 214.69L843.68 214.69z" fill="rgba(213, 53, 52, 1)"></path><path d="M112.93 356.68L124.88 356.68L124.88 368.63L112.93 368.63z" stroke="rgba(253, 226, 72, 1)"></path><path d="M1325.55 390.33a51.14 51.14 0 1 0 102.28 1.2z" fill="rgba(213, 53, 52, 1)"></path><path d="M562.93 429.23L568.4 429.23L568.4 434.7L562.93 434.7z" fill="rgba(213, 53, 52, 1)"></path><path d="M707.42 441.7L761.44 441.7L761.44 489.17L707.42 489.17z" fill="rgba(253, 226, 72, 1)"></path><path d="M979.35 493.63L1032.91 493.63L1032.91 523.1L979.35 523.1z" stroke="rgba(213, 53, 52, 1)"></path><path d="M531.55 351.17a23.88 23.88 0 1 0-37.31-29.82z" stroke="rgba(213, 53, 52, 1)"></path><path d="M1099.56 369.84L1150.83 369.84L1150.83 421.11L1099.56 421.11z" stroke="rgba(253, 226, 72, 1)"></path></g><defs><mask id="SvgjsMask1018"><rect width="1440" height="560" fill="#ffffff"></rect></mask></defs></svg>