<svg xmlns="http://www.w3.org/2000/svg" version="1.1" xmlns:xlink="http://www.w3.org/1999/xlink" xmlns:svgjs="http://svgjs.com/svgjs" width="1440" height="560" preserveAspectRatio="none" viewBox="0 0 1440 560"><g mask="url(&quot;#SvgjsMask1086&quot;)" fill="none"><path d="M426.69 356.90999999999997 L429 513.42L355.46571394704773 507.54428605295226z" fill="rgba(255, 51, 49, 1)"></path><rect width="360" height="360" clip-path="url(&quot;#SvgjsClipPath1087&quot;)" x="1134.32" y="128.78" fill="url(#SvgjsPattern1088)" transform="rotate(254.91, 1314.32, 308.78)"></rect><circle r="52.40347726022929" cx="56.9" cy="544.8" stroke="rgba(255, 226, 55, 1)" stroke-width="1"></circle><rect width="356.16" height="356.16" clip-path="url(&quot;#SvgjsClipPath1089&quot;)" x="1213.24" y="32.59" fill="url(#SvgjsPattern1090)" transform="rotate(25.26, 1391.32, 210.67)"></rect><circle r="88.12814716000953" cx="1342.64" cy="272.28" stroke="rgba(255, 51, 49, 1)" stroke-width="1" stroke-dasharray="2, 2"></circle><path d="M292.26 255.85a5.6 5.6 0 1 0-8.5 7.3 5.6 5.6 0 1 0 8.5-7.3zM280.12 266.27a5.6 5.6 0 1 0-8.5 7.3 5.6 5.6 0 1 0 8.5-7.3zM267.97 276.69a5.6 5.6 0 1 0-8.49 7.3 5.6 5.6 0 1 0 8.49-7.3zM255.83 287.12a5.6 5.6 0 1 0-8.49 7.29 5.6 5.6 0 1 0 8.49-7.29zM306.12 222.87a5.6 5.6 0 1 0-8.5 7.29 5.6 5.6 0 1 0 8.5-7.29zM293.98 233.29a5.6 5.6 0 1 0-8.5 7.3 5.6 5.6 0 1 0 8.5-7.3zM281.84 243.71a5.6 5.6 0 1 0-8.5 7.3 5.6 5.6 0 1 0 8.5-7.3zM269.7 254.13a5.6 5.6 0 1 0-8.5 7.3 5.6 5.6 0 1 0 8.5-7.3zM319.98 189.89a5.6 5.6 0 1 0-8.5 7.29 5.6 5.6 0 1 0 8.5-7.29zM307.84 200.31a5.6 5.6 0 1 0-8.5 7.29 5.6 5.6 0 1 0 8.5-7.29zM295.7 210.73a5.6 5.6 0 1 0-8.5 7.29 5.6 5.6 0 1 0 8.5-7.29zM283.56 221.15a5.6 5.6 0 1 0-8.5 7.29 5.6 5.6 0 1 0 8.5-7.29z" stroke="rgba(255, 226, 55, 1)" stroke-width="2.25" stroke-dasharray="4, 4"></path><path d="M406.37 117.93a5.6 5.6 0 1 0 11.18-0.6 5.6 5.6 0 1 0-11.18 0.6zM422.34 117.08a5.6 5.6 0 1 0 11.19-0.6 5.6 5.6 0 1 0-11.19 0.6zM438.32 116.22a5.6 5.6 0 1 0 11.18-0.6 5.6 5.6 0 1 0-11.18 0.6zM454.3 115.36a5.6 5.6 0 1 0 11.18-0.6 5.6 5.6 0 1 0-11.18 0.6zM375.27 135.62a5.6 5.6 0 1 0 11.18-0.6 5.6 5.6 0 1 0-11.18 0.6zM391.25 134.77a5.6 5.6 0 1 0 11.18-0.6 5.6 5.6 0 1 0-11.18 0.6zM407.22 133.91a5.6 5.6 0 1 0 11.19-0.6 5.6 5.6 0 1 0-11.19 0.6zM423.2 133.05a5.6 5.6 0 1 0 11.18-0.6 5.6 5.6 0 1 0-11.18 0.6z" stroke="rgba(255, 226, 55, 1)" stroke-width="2.57"></path><rect width="192" height="192" clip-path="url(&quot;#SvgjsClipPath1091&quot;)" x="624.8" y="317.11" fill="url(#SvgjsPattern1092)" transform="rotate(150.46, 720.8, 413.11)"></rect><path d="M871.46 300.98L884.12 299.07 888.77 311 901.43 309.09 906.08 321.02 918.74 319.11 923.39 331.04M867.45 307.9L880.12 305.99 884.76 317.92 897.42 316.01 902.07 327.95 914.73 326.03 919.38 337.97M863.44 314.83L876.11 312.91 880.75 324.85 893.42 322.93 898.06 334.87 910.72 332.96 915.37 344.89" stroke="rgba(255, 226, 55, 1)" stroke-width="1.21" stroke-dasharray="2, 2"></path><path d="M571.66 31.14L579.62 21.11 591.16 26.67 599.11 16.63 610.65 22.19 618.61 12.16 630.14 17.72" stroke="rgba(255, 226, 55, 1)" stroke-width="1" stroke-dasharray="2, 2"></path><rect width="264" height="264" clip-path="url(&quot;#SvgjsClipPath1093&quot;)" x="1124.34" y="-112.4" fill="url(#SvgjsPattern1094)" transform="rotate(185.55, 1256.34, 19.6)"></rect><path d="M353.93 71.01L366.22 74.61 365.42 87.39 377.71 90.98 376.9 103.76 389.19 107.36 388.38 120.14M347.38 75.61L359.67 79.2 358.87 91.98 371.16 95.58 370.35 108.36 382.64 111.95 381.83 124.73M340.83 80.2L353.12 83.79 352.32 96.57 364.61 100.17 363.8 112.95 376.09 116.54 375.28 129.32" stroke="rgba(255, 226, 55, 1)" stroke-width="2.94" stroke-dasharray="2, 2"></path></g><defs><mask id="SvgjsMask1086"><rect width="1440" height="560" fill="#ffffff"></rect></mask><pattern x="0" y="0" width="360" height="6" patternUnits="userSpaceOnUse" id="SvgjsPattern1088"><rect width="360" height="3" x="0" y="0" fill="rgba(255, 226, 55, 1)"></rect><rect width="360" height="3" x="0" y="3" fill="rgba(0, 0, 0, 0)"></rect></pattern><clipPath id="SvgjsClipPath1087"><circle r="90" cx="1314.32" cy="308.78"></circle></clipPath><pattern x="0" y="0" width="7.42" height="7.42" patternUnits="userSpaceOnUse" id="SvgjsPattern1090"><path d="M3.71 1L3.71 6.42M1 3.71L6.42 3.71" stroke="rgba(255, 51, 49, 1)" fill="none" stroke-width="1"></path></pattern><clipPath id="SvgjsClipPath1089"><circle r="89.04" cx="1391.32" cy="210.67"></circle></clipPath><pattern x="0" y="0" width="6" height="6" patternUnits="userSpaceOnUse" id="SvgjsPattern1092"><path d="M0 6L3 0L6 6" stroke="rgba(255, 51, 49, 1)" fill="none"></path></pattern><clipPath id="SvgjsClipPath1091"><circle r="48" cx="720.8" cy="413.11"></circle></clipPath><pattern x="0" y="0" width="6" height="6" patternUnits="userSpaceOnUse" id="SvgjsPattern1094"><path d="M3 1L3 5M1 3L5 3" stroke="rgba(255, 226, 55, 1)" fill="none" stroke-width="1"></path></pattern><clipPath id="SvgjsClipPath1093"><circle r="66" cx="1256.34" cy="19.6"></circle></clipPath></defs></svg>